<svg width="219" height="68" viewBox="0 0 219 68" fill="none" xmlns="http://www.w3.org/2000/svg">
<path d="M55.7452 15.8615C57.0174 14.0529 56.6688 11.5915 55.0072 10.1954L58.6925 4.94623C59.6885 3.52742 59.349 1.5692 57.9319 0.571957C56.5148 -0.425287 54.559 -0.0853173 53.563 1.33349L49.8778 6.58261C48.0034 5.48565 45.5723 5.99333 44.3001 7.80197L38.1202 16.6004C43.5033 16.7545 48.755 17.6293 53.4951 19.0663L55.7452 15.8615Z" fill="#9E6240"/>
<path d="M13.1609 52.1385C11.8888 53.9471 12.2374 56.4085 13.8989 57.8046L10.2136 63.0538C9.21763 64.4726 9.55718 66.4308 10.9742 67.428C12.3913 68.4253 14.3471 68.0853 15.3431 66.6665L19.0284 61.4174C20.9027 62.5144 23.3339 62.0067 24.6061 60.198L30.0208 52.4921C23.7278 52.2971 18.4262 51.7849 14.0936 50.8149L13.1609 52.1385Z" fill="#9E6240"/>
<path d="M52.9835 20.4035C55.9218 23.5493 56.5103 26.872 57.8006 31.4774C57.8006 31.4774 55.5415 26.8357 51.2541 22.2529C50.6655 21.6229 50.0407 20.9973 49.3752 20.3808C48.85 19.8913 48.2977 19.4153 47.7227 18.9484C44.4359 18.2232 40.9498 17.7925 37.328 17.7245C37.0201 17.72 36.7122 17.7109 36.4044 17.7109C35.5623 17.7109 34.7293 17.7381 33.9053 17.7789C34.684 18.477 35.3314 19.1343 35.8883 19.7734C39.0302 23.3544 39.1434 26.2419 40.6103 31.4774C40.6103 31.4774 38.2651 26.3099 34.3263 21.9991C33.3846 20.9701 32.3524 19.991 31.2387 19.1433C30.7633 18.7807 30.2789 18.4407 29.7763 18.137C25.4618 18.681 21.4098 19.7326 17.7744 21.1378C20.0833 23.9029 20.9571 27.2527 22.1387 31.4729C22.1387 31.4729 19.6758 26.9898 15.0172 22.3028C5.91724 26.5093 0 32.9053 0 38.5171C0 43.1678 4.07008 46.3953 10.6438 48.4623C11.9794 48.8793 13.4281 49.2465 14.9538 49.5729C18.7296 50.3752 23.0487 50.9055 27.73 51.1866C28.7441 51.2455 29.7763 51.2908 30.8222 51.3316C32.6422 51.3996 34.4984 51.4359 36.3999 51.4359C56.5058 51.4359 72.8042 47.8322 72.8042 38.5216C72.8042 31.9761 64.7456 24.3562 52.9745 20.4035H52.9835Z" fill="#9E6240"/>
<path d="M107.222 34.8557C107.286 34.7469 107.39 34.7016 107.525 34.7106C107.666 34.7197 107.802 34.765 107.942 34.8375C108.082 34.9146 108.2 35.0053 108.295 35.1095C108.39 35.2183 108.431 35.3044 108.408 35.3679C108.259 35.7124 108.06 36.1612 107.815 36.7187C107.571 37.2763 107.281 37.8746 106.95 38.5183C106.62 39.162 106.267 39.8011 105.891 40.4312C105.515 41.0612 105.126 41.6143 104.719 42.0857C104.311 42.5571 103.904 42.9152 103.501 43.1645C103.093 43.4093 102.699 43.4501 102.314 43.2778C101.631 42.956 101.11 42.5798 100.757 42.1537C100.404 41.7231 100.268 41.102 100.354 40.2907C99.9693 40.8709 99.6026 41.4058 99.2631 41.8998C98.919 42.3939 98.4165 42.9832 97.7555 43.6677C97.52 43.9261 97.1895 44.0756 96.7594 44.1164C96.3293 44.1572 95.9083 44.121 95.4918 44.0031C95.0753 43.8853 94.704 43.6994 94.3826 43.441C94.0611 43.1827 93.8891 42.8835 93.871 42.539C93.8484 42.1537 93.8936 41.6596 93.9978 41.0612C94.1064 40.4629 94.2513 39.8147 94.4324 39.1166C94.6135 38.4186 94.8308 37.716 95.0753 37.0088C95.3197 36.3017 95.5688 35.6444 95.8132 35.0325C96.0577 34.4205 96.2886 33.9083 96.5014 33.4913C96.7142 33.0742 96.8953 32.8023 97.0492 32.6708C97.1986 32.5212 97.425 32.4623 97.7238 32.494C98.0226 32.5258 98.3078 32.6073 98.5749 32.7343C98.842 32.8612 99.0548 33.0198 99.2178 33.2012C99.3808 33.3825 99.417 33.5502 99.331 33.6998C99.1589 33.999 98.9235 34.5066 98.6247 35.2274C98.3259 35.9436 98.0271 36.7187 97.7238 37.5437C97.425 38.3687 97.1578 39.162 96.9224 39.9235C96.687 40.685 96.5602 41.2471 96.5376 41.6097C96.6463 41.5871 96.8228 41.4284 97.0673 41.1292C97.3118 40.8301 97.6015 40.4266 97.932 39.9235C98.2625 39.4203 98.6247 38.8356 99.0095 38.1692C99.3944 37.5074 99.7973 36.8048 100.214 36.0614C100.63 35.3226 101.038 34.5656 101.436 33.795C101.83 33.0244 102.201 32.2628 102.545 31.5104C102.672 31.2339 102.903 31.0934 103.238 31.0934C103.573 31.0934 103.895 31.1704 104.216 31.32C104.537 31.4696 104.8 31.669 105.004 31.9138C105.207 32.1586 105.266 32.3807 105.18 32.5711C104.945 33.0833 104.678 33.7542 104.379 34.5792C104.08 35.4042 103.804 36.2609 103.56 37.1493C103.315 38.0378 103.116 38.8809 102.966 39.6742C102.817 40.4674 102.772 41.0658 102.84 41.4737C103.247 41.2154 103.664 40.8119 104.094 40.2499C104.524 39.6923 104.931 39.094 105.33 38.4503C105.724 37.8066 106.09 37.1584 106.421 36.5057C106.751 35.8529 107.027 35.2999 107.24 34.8511L107.222 34.8557Z" fill="#9E6240"/>
<path d="M111.686 36.9907C111.795 36.8411 111.921 36.7595 112.071 36.7504C112.22 36.7414 112.352 36.7686 112.474 36.832C112.592 36.8955 112.687 36.9816 112.764 37.0904C112.836 37.1992 112.845 37.3034 112.777 37.4122C112.542 37.9063 112.198 38.55 111.749 39.3433C111.301 40.1365 110.808 40.9298 110.274 41.723C109.739 42.5163 109.187 43.2325 108.621 43.8762C108.055 44.5199 107.544 44.9369 107.095 45.1318C106.815 45.2406 106.498 45.2723 106.131 45.227C105.764 45.1862 105.425 45.0819 105.103 44.9233C104.782 44.7601 104.515 44.5471 104.302 44.2796C104.089 44.0122 103.994 43.7085 104.012 43.364C104.035 42.9379 104.125 42.3622 104.284 41.646C104.442 40.9298 104.66 40.1683 104.927 39.3614C105.194 38.5591 105.488 37.7658 105.81 36.9816C106.131 36.1974 106.462 35.5311 106.806 34.9735C106.914 34.8013 107.132 34.7151 107.462 34.7151C107.793 34.7151 108.119 34.7786 108.44 34.9055C108.761 35.0325 109.029 35.2047 109.241 35.4223C109.454 35.6353 109.508 35.862 109.4 36.0977C108.395 38.0287 107.707 39.5336 107.344 40.6125C106.982 41.6959 106.864 42.3985 106.991 42.7203C107.077 42.956 107.258 42.9832 107.539 42.8019C107.815 42.6206 108.164 42.2715 108.585 41.7548C109.001 41.2426 109.477 40.5762 110.015 39.7603C110.55 38.9444 111.107 38.0242 111.686 36.9952V36.9907ZM109.662 33.6136C109.536 33.7859 109.345 33.8811 109.101 33.9038C108.856 33.9264 108.607 33.8992 108.363 33.8222C108.119 33.7451 107.901 33.6363 107.72 33.4867C107.539 33.3371 107.458 33.1785 107.48 33.0062C107.521 32.7071 107.593 32.3898 107.688 32.0588C107.783 31.7279 107.888 31.4152 107.992 31.1251C108.1 30.835 108.205 30.5721 108.313 30.3363C108.422 30.1006 108.503 29.9193 108.571 29.7879C108.698 29.5929 108.933 29.4932 109.278 29.4842C109.617 29.4751 109.957 29.534 110.287 29.6609C110.618 29.7879 110.894 29.9601 111.107 30.1732C111.319 30.3862 111.365 30.6038 111.233 30.8168C111.17 30.9438 111.066 31.1341 110.93 31.3789C110.79 31.6282 110.645 31.8821 110.495 32.1495C110.346 32.417 110.197 32.6799 110.047 32.9382C109.898 33.1966 109.771 33.4187 109.662 33.6136Z" fill="#9E6240"/>
<path d="M124.403 37.3896C124.498 37.2536 124.616 37.1811 124.752 37.172C124.888 37.163 125.01 37.1856 125.119 37.2445C125.227 37.3035 125.313 37.3805 125.381 37.4803C125.449 37.58 125.454 37.6752 125.395 37.7749C125.182 38.2237 124.87 38.8084 124.458 39.5337C124.05 40.2544 123.597 40.9797 123.113 41.7004C122.624 42.4211 122.122 43.0784 121.605 43.6632C121.089 44.2479 120.628 44.6287 120.216 44.8055C119.962 44.9052 119.668 44.9324 119.337 44.8916C119.007 44.8508 118.694 44.7601 118.4 44.6151C118.106 44.47 117.866 44.2751 117.671 44.0303C117.477 43.7856 117.39 43.509 117.409 43.1963C117.427 42.8064 117.513 42.2852 117.658 41.6324C117.802 40.9797 117.997 40.2861 118.242 39.5518C118.486 38.822 118.753 38.0967 119.048 37.3851C119.342 36.6734 119.641 36.0615 119.953 35.5538C120.048 35.3996 120.252 35.3181 120.551 35.3181C120.849 35.3181 121.148 35.377 121.442 35.4948C121.737 35.6127 121.977 35.7668 122.171 35.9617C122.366 36.1566 122.416 36.3606 122.316 36.5782C121.402 38.337 120.777 39.7059 120.446 40.6896C120.116 41.6777 120.007 42.3169 120.125 42.607C120.202 42.82 120.369 42.8472 120.623 42.6795C120.877 42.5118 121.193 42.1945 121.574 41.7276C121.954 41.2607 122.389 40.6533 122.873 39.9144C123.362 39.171 123.869 38.3324 124.394 37.3987L124.403 37.3896ZM122.561 34.3163C122.443 34.4704 122.271 34.5611 122.049 34.5792C121.823 34.5973 121.601 34.5792 121.379 34.5067C121.153 34.4387 120.958 34.3344 120.795 34.1984C120.628 34.0624 120.555 33.9174 120.578 33.7587C120.618 33.4867 120.682 33.1966 120.768 32.8929C120.854 32.5892 120.949 32.3082 121.044 32.0453C121.139 31.7824 121.239 31.5421 121.338 31.3291C121.433 31.116 121.515 30.9483 121.574 30.8305C121.691 30.6537 121.904 30.563 122.217 30.5539C122.529 30.5449 122.837 30.5993 123.14 30.7171C123.444 30.835 123.693 30.9891 123.887 31.184C124.082 31.3789 124.123 31.5739 124.005 31.7688C123.946 31.8866 123.856 32.0589 123.729 32.281C123.602 32.5076 123.471 32.7388 123.335 32.9836C123.199 33.2284 123.063 33.4686 122.927 33.6998C122.792 33.931 122.674 34.1395 122.579 34.3163H122.561Z" fill="#9E6240"/>
<path d="M137.139 35.59C137.202 35.4404 137.315 35.3769 137.474 35.3951C137.637 35.4177 137.795 35.4721 137.954 35.5537C138.112 35.6398 138.248 35.7396 138.357 35.8574C138.465 35.9753 138.506 36.0659 138.483 36.1294C138.185 36.7504 137.813 37.4394 137.374 38.1873C136.935 38.9353 136.464 39.6606 135.962 40.3586C135.459 41.0567 134.943 41.6822 134.422 42.2398C133.897 42.7973 133.413 43.1917 132.96 43.4274C132.661 43.577 132.317 43.6359 131.932 43.6042C131.548 43.5725 131.172 43.4909 130.81 43.3639C130.443 43.237 130.126 43.0648 129.845 42.8472C129.569 42.6341 129.406 42.4166 129.365 42.2035C129.279 41.8409 129.279 41.3468 129.365 40.7258C129.451 40.1048 129.574 39.4838 129.737 38.8628C129.895 38.2417 130.058 37.6797 130.216 37.1765C130.375 36.6734 130.488 36.347 130.551 36.1974C130.121 36.56 129.641 37.0858 129.107 37.7749C128.573 38.4593 128.043 39.1891 127.518 39.9597C126.993 40.7303 126.513 41.4918 126.074 42.2443C125.635 42.9922 125.3 43.6178 125.064 44.1073C124.956 44.3023 124.743 44.402 124.421 44.4111C124.1 44.4201 123.779 44.3748 123.457 44.266C123.136 44.1572 122.85 44.0076 122.606 43.8172C122.362 43.6223 122.271 43.4319 122.334 43.237C122.461 42.7203 122.656 42.0403 122.914 41.1972C123.172 40.3496 123.471 39.4294 123.815 38.4321C124.159 37.4349 124.544 36.4104 124.969 35.3633C125.395 34.3117 125.87 33.3371 126.382 32.4396C126.531 32.1404 126.771 31.9908 127.106 31.9908C127.441 31.9908 127.763 32.0679 128.084 32.2175C128.406 32.3671 128.668 32.562 128.872 32.7977C129.076 33.0334 129.143 33.2374 129.08 33.4097C128.867 33.8584 128.636 34.3162 128.392 34.7741C128.143 35.2364 127.912 35.6625 127.686 36.0614C127.459 36.4603 127.269 36.8048 127.106 37.1085C126.948 37.4077 126.853 37.6117 126.835 37.7205C127.179 37.2264 127.545 36.7368 127.944 36.2427C128.338 35.7486 128.736 35.2908 129.13 34.8602C129.524 34.4296 129.927 34.0443 130.334 33.7043C130.742 33.3598 131.136 33.0742 131.52 32.834C131.778 32.6844 132.091 32.6391 132.467 32.707C132.842 32.7705 133.191 32.902 133.512 33.0923C133.834 33.2873 134.083 33.5139 134.268 33.7859C134.45 34.0533 134.486 34.3162 134.382 34.5746C134.21 35.0052 133.988 35.5356 133.707 36.1657C133.431 36.8003 133.159 37.4621 132.906 38.1602C132.648 38.8582 132.426 39.5246 132.231 40.1682C132.036 40.8119 131.941 41.3559 131.941 41.8092C132.349 41.5734 132.788 41.2425 133.259 40.8119C133.73 40.3813 134.196 39.8917 134.658 39.3342C135.12 38.7766 135.563 38.1783 135.989 37.5346C136.414 36.8909 136.804 36.2473 137.143 35.6036L137.139 35.59Z" fill="#9E6240"/>
<path d="M145.139 35.6444C145.216 35.5674 145.32 35.5356 145.446 35.5538C145.573 35.5719 145.695 35.6218 145.813 35.6988C145.931 35.7759 146.021 35.8802 146.08 36.0071C146.139 36.134 146.13 36.27 146.053 36.406C145.8 37.172 145.437 37.9381 144.976 38.6951C144.514 39.4521 143.989 40.1638 143.4 40.8346C142.812 41.5055 142.191 42.1129 141.544 42.6659C140.896 43.219 140.258 43.6677 139.629 44.0213C139.335 44.1799 139.018 44.2389 138.687 44.1981C138.352 44.1573 138.017 44.0666 137.687 43.917C137.352 43.772 137.048 43.5997 136.772 43.4003C136.496 43.2054 136.27 43.015 136.093 42.8382C135.722 42.4438 135.513 41.918 135.473 41.2607C135.432 40.6035 135.509 39.8873 135.695 39.1212C135.88 38.3551 136.161 37.5573 136.537 36.7323C136.912 35.9074 137.329 35.1277 137.791 34.4024C138.253 33.6726 138.737 33.0335 139.249 32.485C139.76 31.9365 140.24 31.5331 140.693 31.2747C140.969 31.1387 141.222 31.0662 141.458 31.0526C141.693 31.0435 141.938 31.0798 142.196 31.1704C142.449 31.2611 142.712 31.388 142.979 31.5557C143.246 31.7235 143.545 31.9048 143.88 32.0997C144.351 32.3943 144.568 32.7706 144.527 33.2193C144.527 33.4369 144.446 33.8177 144.278 34.3707C144.111 34.9237 143.875 35.4994 143.572 36.0977C143.269 36.6961 142.893 37.2582 142.454 37.7794C142.01 38.3007 141.517 38.6498 140.964 38.8266C140.571 38.9263 140.226 38.9535 139.932 38.9172C139.638 38.8764 139.312 38.7812 138.959 38.6226C138.859 38.8175 138.751 39.1121 138.633 39.4929C138.515 39.8782 138.425 40.2635 138.366 40.6578C138.307 41.0522 138.289 41.4013 138.307 41.705C138.325 42.0087 138.443 42.1809 138.66 42.2217C138.972 42.2806 139.421 42.1129 140 41.7186C140.58 41.3242 141.182 40.8074 141.811 40.1683C142.44 39.5292 143.061 38.8039 143.667 37.997C144.274 37.1902 144.767 36.4014 145.139 35.6354V35.6444ZM142.191 33.4596C141.997 33.6001 141.743 33.8585 141.44 34.2438C141.136 34.6291 140.842 35.037 140.557 35.4677C140.272 35.9028 140.027 36.3062 139.819 36.6779C139.611 37.0496 139.511 37.2854 139.511 37.3851C139.864 37.444 140.195 37.3352 140.498 37.0587C140.801 36.7822 141.078 36.4332 141.322 36.0116C141.567 35.59 141.766 35.1413 141.911 34.6699C142.055 34.1984 142.151 33.795 142.191 33.4596Z" fill="#9E6240"/>
<path d="M157.227 41.9905C157.82 42.0585 158.444 41.9497 159.101 41.6596C159.757 41.3695 160.405 40.9797 161.052 40.4856C161.7 39.9915 162.333 39.4158 162.954 38.7631C163.574 38.1058 164.149 37.4485 164.674 36.7822C165.199 36.1158 165.675 35.4767 166.091 34.8557C166.508 34.2347 166.843 33.6953 167.101 33.2329C167.237 32.979 167.4 32.8249 167.585 32.7751C167.771 32.7252 167.934 32.7388 168.07 32.8113C168.205 32.8839 168.296 33.0198 168.337 33.2057C168.377 33.3915 168.332 33.6046 168.196 33.8448C167.295 35.377 166.358 36.7958 165.389 38.0967C164.421 39.3977 163.42 40.5128 162.392 41.4284C161.365 42.3486 160.31 43.0421 159.228 43.509C158.146 43.9759 157.036 44.1436 155.9 44.0076C155.167 43.9397 154.569 43.6949 154.103 43.2778C153.636 42.8608 153.279 42.3259 153.03 41.6687C152.785 41.0114 152.64 40.2589 152.595 39.4067C152.554 38.5545 152.6 37.6525 152.736 36.7006C152.889 35.5447 153.161 34.3525 153.55 33.1241C153.94 31.8957 154.415 30.7081 154.967 29.5476C155.52 28.3917 156.149 27.3174 156.855 26.3292C157.562 25.3411 158.313 24.5161 159.115 23.8497C159.916 23.1879 160.744 22.7165 161.6 22.4445C162.46 22.1726 163.32 22.1816 164.19 22.4717C164.733 22.644 165.122 23.0111 165.349 23.5823C165.58 24.1534 165.693 24.8334 165.693 25.6266C165.693 26.4199 165.598 27.2812 165.412 28.2195C165.226 29.1578 164.987 30.0825 164.697 31.0027C164.407 31.9229 164.086 32.7932 163.728 33.6227C163.37 34.4477 163.022 35.1503 162.682 35.7305C162.578 35.8847 162.374 35.9526 162.071 35.9345C161.763 35.9164 161.473 35.8303 161.193 35.6807C160.912 35.5266 160.699 35.3271 160.554 35.0778C160.409 34.833 160.455 34.561 160.695 34.2755C160.862 34.0533 161.093 33.6545 161.383 33.0742C161.672 32.494 161.971 31.8368 162.275 31.0934C162.582 30.3545 162.863 29.5794 163.117 28.768C163.37 27.9611 163.551 27.2132 163.651 26.5332C163.755 25.8533 163.755 25.2912 163.651 24.847C163.547 24.4028 163.293 24.167 162.886 24.1308C162.478 24.1126 162.012 24.3484 161.496 24.8334C160.975 25.3184 160.446 25.9666 159.902 26.7735C159.359 27.5803 158.825 28.5096 158.309 29.5567C157.788 30.6038 157.322 31.6826 156.905 32.7887C156.489 33.8947 156.149 34.9871 155.887 36.0569C155.624 37.1312 155.484 38.0922 155.466 38.9444C155.447 39.7966 155.574 40.4992 155.846 41.0522C156.117 41.6052 156.575 41.918 157.222 41.986L157.227 41.9905Z" fill="#9E6240"/>
<path d="M172.162 37.1312C172.18 37.2853 172.217 37.3896 172.276 37.4485C172.334 37.5074 172.393 37.5528 172.452 37.5754C172.511 37.5981 172.561 37.6253 172.606 37.6525C172.647 37.6797 172.66 37.7341 172.642 37.8202C172.606 37.9562 172.461 38.0333 172.194 38.0514C171.931 38.0695 171.646 38.0423 171.338 37.9743C171.03 37.9063 170.745 37.8066 170.483 37.6797C170.22 37.5528 170.071 37.4032 170.034 37.2309C169.948 36.9408 169.917 36.6326 169.93 36.2972C169.944 35.9617 169.948 35.6308 169.93 35.2863C169.029 36.2745 168.255 37.3443 167.608 38.4911C166.96 39.6424 166.453 40.9797 166.078 42.5163C166.028 42.7022 165.887 42.8019 165.657 42.811C165.426 42.82 165.186 42.7747 164.928 42.6704C164.674 42.5662 164.452 42.4302 164.267 42.2625C164.081 42.0948 164.004 41.9134 164.036 41.7276C164.19 40.8074 164.407 39.8464 164.688 38.8401C164.968 37.8338 165.294 36.8456 165.67 35.8665C166.046 34.8874 166.444 33.9536 166.87 33.0697C167.295 32.1858 167.712 31.3925 168.119 30.6945C168.205 30.5403 168.323 30.4497 168.477 30.4134C168.631 30.3772 168.794 30.3862 168.961 30.4406C169.351 30.5766 169.627 30.7443 169.79 30.9392C169.953 31.1342 169.971 31.3608 169.853 31.6146C169.632 32.0906 169.392 32.5892 169.138 33.1105C168.885 33.6318 168.617 34.2211 168.346 34.8874C168.599 34.5293 168.83 34.1984 169.034 33.8902C169.22 33.6363 169.387 33.387 169.532 33.1513C169.677 32.9111 169.767 32.7705 169.799 32.7161C169.953 32.4804 170.08 32.3444 170.179 32.3218C170.283 32.2946 170.451 32.3354 170.691 32.4351C171.166 32.621 171.524 32.7569 171.764 32.8431C172.004 32.9292 172.162 33.038 172.248 33.174C172.334 33.31 172.357 33.5049 172.325 33.7633C172.294 34.0216 172.248 34.4115 172.199 34.9373C172.094 35.7033 172.081 36.4377 172.149 37.1357L172.162 37.1312Z" fill="#9E6240"/>
<path d="M184.499 34.4794C184.549 34.4115 184.649 34.3797 184.794 34.3888C184.938 34.3978 185.074 34.4341 185.201 34.5021C185.328 34.5701 185.432 34.6608 185.509 34.7696C185.586 34.8783 185.59 34.9962 185.522 35.1141C185.201 35.6761 184.83 36.3017 184.413 36.9907C183.997 37.6797 183.553 38.3551 183.087 39.0214C182.62 39.6832 182.136 40.2861 181.647 40.821C181.154 41.3559 180.669 41.7367 180.194 41.9588C179.94 42.0766 179.669 42.1174 179.388 42.0721C179.107 42.0313 178.854 41.9361 178.623 41.791C178.392 41.646 178.197 41.4692 178.034 41.2562C177.871 41.0431 177.785 40.8346 177.767 40.6306C177.731 40.3586 177.767 39.9824 177.871 39.5065C177.975 39.0305 178.084 38.5953 178.202 38.2055C177.998 38.4458 177.781 38.7223 177.55 39.035C177.319 39.3523 177.07 39.6878 176.798 40.0459C176.527 40.404 176.241 40.7621 175.943 41.1202C175.644 41.4783 175.336 41.8092 175.01 42.1174C174.856 42.2715 174.621 42.3305 174.308 42.2942C173.996 42.2625 173.683 42.1718 173.376 42.0268C173.068 41.8817 172.801 41.6959 172.574 41.4647C172.343 41.2335 172.248 40.9933 172.28 40.7349C172.33 40.0867 172.484 39.3977 172.737 38.6679C172.991 37.9335 173.303 37.2264 173.67 36.5329C174.037 35.8439 174.444 35.2002 174.897 34.6064C175.345 34.0126 175.793 33.5275 176.237 33.1513C176.558 32.8974 176.857 32.7524 177.129 32.7161C177.4 32.6844 177.663 32.7161 177.921 32.8068C178.179 32.8975 178.433 33.038 178.686 33.2148C178.94 33.3915 179.211 33.5683 179.501 33.7406C179.687 33.5366 179.872 33.319 180.049 33.0878C180.225 32.8567 180.42 32.6345 180.624 32.4124C180.742 32.2583 180.936 32.1994 181.199 32.2356C181.461 32.2719 181.715 32.3626 181.95 32.5167C182.186 32.6708 182.381 32.8521 182.525 33.0652C182.67 33.2782 182.684 33.4777 182.562 33.668C181.982 34.6562 181.52 35.5311 181.172 36.2971C180.823 37.0632 180.57 37.7114 180.407 38.2372C180.244 38.7676 180.167 39.1665 180.176 39.4385C180.185 39.7104 180.248 39.8464 180.366 39.8464C180.705 39.8283 181.226 39.3705 181.923 38.4684C182.62 37.5664 183.481 36.2382 184.499 34.484V34.4794ZM178.301 35.4767C178.351 35.4087 178.378 35.2908 178.378 35.1186C178.378 34.9463 178.347 34.7922 178.288 34.6472C178.229 34.5021 178.138 34.4114 178.021 34.3797C177.903 34.348 177.749 34.4296 177.563 34.6336C177.174 35.0098 176.812 35.4495 176.481 35.9617C176.151 36.4739 175.861 36.9771 175.612 37.4666C175.363 37.9562 175.164 38.414 175.015 38.831C174.861 39.2481 174.784 39.5608 174.784 39.7648C174.969 39.6107 175.223 39.3614 175.535 39.0124C175.852 38.6633 176.178 38.278 176.518 37.8519C176.857 37.4258 177.188 36.9997 177.514 36.5737C177.835 36.1476 178.102 35.7804 178.306 35.4767H178.301Z" fill="#9E6240"/>
<path d="M190.444 35.1911C190.548 35.1231 190.638 35.1322 190.724 35.2183C190.81 35.3044 190.869 35.4178 190.901 35.5628C190.933 35.7079 190.933 35.862 190.901 36.0206C190.865 36.1838 190.792 36.2971 190.67 36.3651C190.109 36.8094 189.448 37.0904 188.692 37.2083C187.936 37.3261 187.175 37.3171 186.41 37.1811C186.749 37.4349 186.989 37.7658 187.125 38.1647C187.261 38.5636 187.324 39.0033 187.315 39.4793C187.306 39.9552 187.238 40.4538 187.112 40.9751C186.985 41.4964 186.826 41.995 186.641 42.4801C186.455 42.9651 186.251 43.4184 186.03 43.8354C185.808 44.2524 185.604 44.5969 185.418 44.8689C185.079 45.3811 184.68 45.6667 184.219 45.7256C183.757 45.7846 183.241 45.7483 182.661 45.6123C182.322 45.5443 182.068 45.4083 181.896 45.2043C181.729 45.0004 181.602 44.7647 181.525 44.5017C181.448 44.2388 181.412 43.9578 181.412 43.6586C181.412 43.3594 181.43 43.0829 181.462 42.8291C181.511 42.3713 181.652 41.7367 181.883 40.9253C182.113 40.1184 182.403 39.2209 182.752 38.2418C183.1 37.2627 183.499 36.2473 183.952 35.2002C184.404 34.1531 184.884 33.1558 185.391 32.213C185.903 31.2701 186.428 30.4225 186.971 29.67C187.515 28.9221 188.049 28.36 188.578 27.9838C188.746 27.8659 188.968 27.8704 189.239 27.9974C189.511 28.1243 189.765 28.3101 189.991 28.5458C190.222 28.7861 190.385 29.0354 190.489 29.2983C190.593 29.5612 190.548 29.7697 190.362 29.9239C189.937 30.2321 189.525 30.5993 189.126 31.0208C188.728 31.4469 188.348 31.9047 187.99 32.3988C187.632 32.8929 187.311 33.4051 187.021 33.931C186.731 34.4613 186.496 34.9781 186.306 35.4903C186.627 35.6444 186.976 35.7487 187.352 35.8076C187.727 35.8665 188.094 35.8847 188.461 35.8575C188.828 35.8303 189.181 35.7623 189.52 35.6535C189.86 35.5447 190.168 35.386 190.439 35.182L190.444 35.1911ZM183.784 44.053C184.006 43.7991 184.228 43.4637 184.45 43.0421C184.671 42.6251 184.871 42.1854 185.047 41.7276C185.224 41.2698 185.369 40.8074 185.482 40.3496C185.59 39.8918 185.64 39.4793 185.622 39.1212C185.622 38.9353 185.6 38.7404 185.559 38.5455C185.518 38.3506 185.437 38.1602 185.314 37.9698C185.246 38.0877 185.165 38.2735 185.07 38.5183C184.975 38.7631 184.884 39.0305 184.789 39.3115C184.694 39.5926 184.608 39.86 184.522 40.1139C184.436 40.3677 184.368 40.5717 184.318 40.7258C184.146 41.2562 184.006 41.8046 183.884 42.3713C183.766 42.9424 183.73 43.5 183.78 44.0439L183.784 44.053Z" fill="#9E6240"/>
<path d="M198.167 27.7617C198.883 27.8977 199.435 28.0246 199.824 28.1424C200.25 28.2966 200.549 28.4824 200.716 28.7045C200.82 28.8586 200.929 29.0717 201.047 29.3437C201.083 29.4796 201.115 29.6156 201.151 29.7516C201.187 29.8876 201.21 30.0145 201.228 30.1324C201.228 30.3862 201.151 30.5313 200.997 30.5675C200.743 30.2276 200.232 29.9556 199.467 29.7516C198.308 29.4978 197.434 29.3845 196.841 29.4207C196.705 29.6247 196.569 29.8287 196.433 30.0327C196.298 30.2366 196.162 30.4406 196.026 30.6446C195.193 32.077 194.478 33.5411 193.885 35.037C193.287 36.5873 192.821 38.0831 192.481 39.5337C192.173 40.9797 192.083 42.1492 192.2 43.0331C192.318 43.9669 192.712 44.47 193.373 44.538C193.119 44.7601 192.744 44.8372 192.25 44.7692C191.806 44.7193 191.349 44.4519 190.874 43.9759C190.398 43.5317 190.1 42.8699 189.982 41.986C189.914 41.3242 189.959 40.5445 190.122 39.647C190.285 38.754 190.552 37.7341 190.928 36.5963C191.304 35.454 191.72 34.3389 192.191 33.251C192.658 32.1631 193.165 31.0888 193.708 30.0327C193.74 29.9465 193.785 29.8649 193.835 29.7879C193.885 29.7108 193.93 29.6292 193.962 29.5431C193.875 29.5431 193.771 29.5522 193.645 29.5703C193.518 29.5884 193.377 29.6111 193.224 29.6474C193.07 29.6836 192.925 29.7154 192.789 29.7516C192.653 29.7879 192.517 29.8287 192.381 29.8785C192.246 29.9148 192.132 29.9601 192.051 30.0191C191.969 30.078 191.906 30.1233 191.874 30.1596C191.77 30.3318 191.68 30.3817 191.594 30.3137C191.476 30.2276 191.372 30.1188 191.286 29.9828C191.25 29.8967 191.209 29.8151 191.159 29.738C191.109 29.661 191.064 29.5794 191.032 29.4932C191.001 29.4071 190.973 29.3301 190.955 29.2621C190.937 29.1941 190.924 29.1442 190.906 29.1079C190.838 28.9221 190.856 28.7498 190.955 28.5957C190.992 28.5096 191.041 28.4416 191.109 28.3917C191.177 28.3419 191.254 28.2875 191.34 28.2376C191.865 28.0336 192.445 27.8795 193.074 27.7798C193.382 27.7481 193.667 27.7118 193.943 27.6755C194.215 27.6438 194.469 27.6076 194.709 27.5713H194.885C194.953 27.5713 195.03 27.5622 195.116 27.5441C195.677 26.7418 196.239 26.0392 196.8 25.4227C196.968 25.255 197.217 25.2096 197.538 25.2958C197.81 25.3456 198.1 25.5088 198.407 25.7808C198.697 26.0528 198.865 26.293 198.919 26.497C198.969 26.7372 198.928 26.8959 198.792 26.982C198.656 27.1543 198.539 27.2993 198.435 27.4308C198.33 27.5577 198.249 27.6665 198.181 27.7481L198.167 27.7617Z" fill="#9E6240"/>
<path d="M205.076 31.601C205.556 31.8277 205.982 32.0679 206.348 32.3218C206.715 32.5802 207.036 32.8431 207.308 33.115C207.82 33.659 207.978 34.5067 207.788 35.6625C207.738 35.9345 207.652 36.27 207.525 36.6734C207.399 37.0723 207.236 37.5392 207.045 38.065C206.869 38.5636 206.697 39.0668 206.529 39.579C206.362 40.0912 206.203 40.6125 206.063 41.1428C205.742 42.2308 205.583 43.1283 205.583 43.8354C205.583 44.606 205.873 44.9958 206.448 45.014C206.258 45.3494 205.896 45.4627 205.366 45.3494C205.094 45.2859 204.836 45.1726 204.587 45.014C204.338 44.8553 204.094 44.6468 203.854 44.3884C203.392 43.8762 203.229 43.1736 203.374 42.2761C203.519 41.7004 203.695 41.0839 203.904 40.4266C204.112 39.7694 204.361 39.0804 204.646 38.3596C204.999 37.4304 205.271 36.6643 205.461 36.0524C205.574 35.6671 205.651 35.3044 205.687 34.9599C205.728 34.6154 205.705 34.3072 205.628 34.0352C205.515 33.523 205.067 33.1241 204.284 32.834C204.234 34.2256 203.741 35.9436 202.794 37.9743C201.866 40.0731 200.843 41.5871 199.725 42.5163C199.598 42.6115 199.503 42.6704 199.435 42.684C199.417 42.684 199.412 42.6931 199.412 42.7067C199.381 42.7248 199.358 42.7294 199.34 42.7294C199.322 42.7294 199.299 42.7384 199.268 42.752C198.738 42.8971 198.09 42.8382 197.325 42.5843C196.524 42.2806 195.845 41.8953 195.283 41.433C194.69 40.9706 194.346 40.4221 194.251 39.8011C194.17 37.9925 194.555 36.3425 195.401 34.8511C195.818 34.0987 196.239 33.4731 196.66 32.9791C197.085 32.485 197.529 32.1133 197.991 31.873C198.344 31.6645 198.693 31.6192 199.046 31.728C199.222 31.7914 199.403 31.873 199.584 31.9682C199.77 32.0634 199.974 32.1767 200.196 32.3036C200.259 32.3354 200.322 32.3716 200.386 32.4124C200.449 32.4532 200.513 32.4895 200.576 32.5212C200.943 32.7297 201.128 33.0108 201.128 33.3644C201.097 33.6681 200.974 34.1168 200.771 34.7106C200.644 35.0325 200.494 35.3452 200.327 35.6489C200.159 35.9527 199.965 36.2473 199.738 36.5374C199.308 37.1448 198.792 37.5482 198.204 37.7386C197.9 37.8519 197.629 37.8837 197.389 37.8338C197.262 37.8021 197.131 37.7749 197.004 37.7522C196.877 37.7296 196.746 37.6752 196.619 37.5936C196.266 38.7449 196.298 39.6198 196.714 40.2136C197.113 40.8074 197.57 41.025 198.081 40.8618C199.168 40.4131 200.417 38.7223 201.825 35.794V35.7713C201.907 35.5945 201.984 35.386 202.065 35.1458C202.097 35.0189 202.129 34.9191 202.161 34.8466C202.192 34.7741 202.21 34.7242 202.21 34.6925C202.64 33.251 202.428 32.2583 201.563 31.7144C201.355 31.5874 201.291 31.388 201.373 31.116C201.468 30.8259 201.626 30.5539 201.853 30.3001C202.142 30.0281 202.387 29.8423 202.595 29.7471C202.867 29.6338 203.084 29.6745 203.243 29.8649C203.356 30.0553 203.451 30.2004 203.532 30.2956C203.677 30.5358 203.845 30.7534 204.035 30.9438C204.211 31.1342 204.555 31.3608 205.067 31.6146L205.076 31.601ZM199.222 33.5729C199.109 33.6545 198.987 33.7678 198.851 33.9219C198.715 34.076 198.557 34.2709 198.385 34.5112C198.208 34.7197 198.045 34.9327 197.891 35.1458C197.737 35.3634 197.597 35.5809 197.47 35.8076C197.18 36.2745 197.04 36.5465 197.04 36.6235C197.407 36.6734 197.76 36.5102 198.095 36.143C198.24 35.9663 198.38 35.7759 198.516 35.5674C198.652 35.3588 198.77 35.1367 198.865 34.8965C198.96 34.6426 199.037 34.4024 199.091 34.1893C199.145 33.9718 199.191 33.7678 199.222 33.5774V33.5729Z" fill="#9E6240"/>
<path d="M217.142 33.1921C217.381 33.1604 217.653 33.2193 217.956 33.3689C218.264 33.523 218.482 33.659 218.622 33.7768C218.554 33.8448 218.509 33.8811 218.482 33.8902C218.454 33.8992 218.427 33.8992 218.391 33.8902C218.355 33.8811 218.31 33.8675 218.251 33.8539C218.192 33.8358 218.11 33.8358 218.006 33.8539C217.753 33.9038 217.377 34.0715 216.883 34.3525C216.39 34.6336 215.878 34.9463 215.353 35.2954C214.824 35.6444 214.335 35.9844 213.886 36.3153C213.434 36.6462 213.144 36.891 213.008 37.0451C213.094 37.1811 213.176 37.308 213.262 37.4304C213.348 37.5482 213.429 37.6752 213.515 37.8111C213.769 38.269 213.882 38.7313 213.846 39.1892C213.809 39.647 213.669 40.0957 213.425 40.5309C213.176 40.9661 212.85 41.3695 212.442 41.7457C212.035 42.122 211.6 42.4347 211.143 42.6886C210.835 42.8563 210.491 42.9832 210.111 43.0603C209.73 43.1373 209.354 43.1645 208.988 43.1373C208.621 43.1101 208.281 43.0376 207.969 42.9198C207.652 42.8019 207.408 42.6251 207.231 42.3985C207.055 42.1673 206.96 41.8908 206.95 41.5689C206.941 41.2471 207.064 40.8709 207.322 40.4448C207.711 39.7966 208.218 39.1937 208.838 38.6316C209.459 38.0695 210.092 37.5437 210.74 37.0496C210.432 36.6054 210.124 36.1838 209.807 35.7849C209.49 35.386 209.278 34.9373 209.155 34.4432C209.051 33.999 209.033 33.5547 209.092 33.1014C209.151 32.6481 209.273 32.2221 209.463 31.8096C209.649 31.4016 209.893 31.0208 210.192 30.6718C210.491 30.3228 210.826 30.019 211.197 29.7652C211.383 29.6473 211.605 29.5884 211.863 29.5975C212.116 29.6066 212.374 29.6519 212.628 29.738C212.881 29.8241 213.117 29.9239 213.329 30.0463C213.542 30.1641 213.71 30.2684 213.827 30.3545C214.271 29.6383 214.656 29.1079 214.986 28.7589C215.317 28.4099 215.589 28.1424 215.792 27.9566C215.91 27.8704 216.073 27.8931 216.277 28.02C216.481 28.147 216.671 28.3192 216.852 28.5322C217.028 28.7453 217.169 28.9629 217.259 29.185C217.354 29.4071 217.341 29.5612 217.223 29.6428C216.951 29.8287 216.625 30.1278 216.254 30.5358C215.878 30.9438 215.53 31.3789 215.208 31.8368C214.887 32.2946 214.633 32.7433 214.457 33.1785C214.28 33.6137 214.249 33.9672 214.366 34.2392C214.28 34.2755 214.167 34.2664 214.022 34.212C213.877 34.1621 213.732 34.0851 213.588 33.9808C213.443 33.8766 213.311 33.7451 213.194 33.5865C213.076 33.4233 212.99 33.251 212.94 33.0652C212.904 32.9292 212.904 32.7705 212.94 32.5938C212.972 32.417 213.017 32.2402 213.067 32.0725C213.117 31.9048 213.176 31.7416 213.243 31.5874C213.311 31.4333 213.361 31.3155 213.397 31.2293C213.076 31.2112 212.773 31.388 212.492 31.7506C212.211 32.1178 212.003 32.5575 211.867 33.0652C211.731 33.5774 211.682 34.1077 211.713 34.6608C211.749 35.2138 211.926 35.6807 212.247 36.0524C212.569 35.8484 212.949 35.5945 213.384 35.2863C213.818 34.9781 214.258 34.6789 214.697 34.3797C215.14 34.0806 215.575 33.8222 216.01 33.6001C216.444 33.3779 216.82 33.242 217.146 33.1921H217.142ZM208.902 41.5463C209.137 41.5281 209.422 41.3967 209.757 41.1519C210.092 40.9071 210.396 40.6125 210.676 40.2725C210.957 39.9326 211.179 39.5835 211.342 39.2254C211.505 38.8673 211.532 38.5772 211.433 38.3551C210.903 38.8492 210.409 39.3478 209.938 39.851C209.472 40.3541 209.128 40.9207 208.906 41.5508L208.902 41.5463Z" fill="#9E6240"/>
<path d="M119.713 35.5538C119.948 35.522 120.216 35.581 120.519 35.7305C120.822 35.8801 121.04 36.0161 121.171 36.134C121.103 36.202 121.058 36.2382 121.03 36.2473C121.003 36.2564 120.976 36.2564 120.944 36.2473C120.913 36.2382 120.863 36.2246 120.804 36.211C120.745 36.1929 120.664 36.1929 120.564 36.211C120.311 36.2609 119.944 36.4241 119.459 36.7006C118.975 36.9771 118.473 37.2899 117.952 37.6298C117.431 37.9743 116.951 38.3098 116.508 38.6361C116.064 38.9625 115.774 39.2028 115.638 39.3523C115.72 39.4883 115.806 39.6107 115.892 39.7286C115.973 39.8464 116.059 39.9734 116.141 40.1048C116.394 40.5581 116.503 41.0114 116.467 41.4647C116.431 41.918 116.295 42.3577 116.05 42.7883C115.806 43.2144 115.484 43.6133 115.082 43.985C114.679 44.3522 114.253 44.6649 113.8 44.9142C113.497 45.082 113.157 45.2044 112.782 45.2814C112.406 45.3585 112.035 45.3811 111.677 45.3585C111.319 45.3358 110.98 45.2633 110.672 45.1454C110.36 45.0276 110.12 44.8553 109.943 44.6287C109.766 44.402 109.676 44.13 109.667 43.8082C109.658 43.4909 109.78 43.1192 110.034 42.7022C110.418 42.063 110.916 41.4692 111.528 40.9162C112.139 40.3632 112.764 39.8419 113.402 39.3569C113.099 38.9217 112.795 38.5047 112.483 38.1103C112.17 37.716 111.958 37.2763 111.84 36.7867C111.74 36.3515 111.718 35.9119 111.777 35.4676C111.835 35.0234 111.958 34.5973 112.143 34.1984C112.329 33.795 112.564 33.4233 112.859 33.0788C113.153 32.7343 113.483 32.4351 113.85 32.1858C114.036 32.0679 114.253 32.0135 114.502 32.0226C114.756 32.0317 115.005 32.077 115.258 32.1631C115.512 32.2447 115.738 32.349 115.951 32.4668C116.159 32.5847 116.322 32.6844 116.44 32.7705C116.874 32.0679 117.259 31.5421 117.585 31.1976C117.911 30.8531 118.178 30.5902 118.377 30.4044C118.495 30.3228 118.654 30.3409 118.853 30.4678C119.057 30.5947 119.242 30.7625 119.419 30.971C119.595 31.1795 119.731 31.3971 119.822 31.6146C119.912 31.8322 119.899 31.9818 119.785 32.0679C119.518 32.2538 119.197 32.5484 118.83 32.9473C118.463 33.3508 118.119 33.7768 117.798 34.2301C117.481 34.6834 117.232 35.1231 117.055 35.5492C116.879 35.9753 116.852 36.3244 116.969 36.5963C116.883 36.6281 116.77 36.6235 116.63 36.5691C116.485 36.5193 116.345 36.4422 116.204 36.3425C116.059 36.2428 115.933 36.1113 115.815 35.9527C115.697 35.794 115.611 35.6218 115.561 35.4359C115.53 35.2999 115.53 35.1458 115.561 34.969C115.593 34.7922 115.638 34.62 115.688 34.4523C115.738 34.2845 115.797 34.1259 115.865 33.9718C115.933 33.8176 115.982 33.7043 116.014 33.6182C115.697 33.6001 115.398 33.7723 115.122 34.1349C114.846 34.4976 114.642 34.9282 114.507 35.4314C114.371 35.9345 114.321 36.4603 114.357 37.0043C114.389 37.5482 114.565 38.0061 114.887 38.3778C115.204 38.1783 115.58 37.9245 116.005 37.6208C116.431 37.3171 116.865 37.0224 117.3 36.7278C117.735 36.4331 118.169 36.1793 118.595 35.9617C119.02 35.7441 119.396 35.6081 119.713 35.5583V35.5538ZM111.591 43.7855C111.826 43.7674 112.107 43.6405 112.433 43.3957C112.759 43.1509 113.062 42.8608 113.339 42.5254C113.615 42.19 113.832 41.8455 113.99 41.4919C114.149 41.1383 114.181 40.8527 114.076 40.6352C113.556 41.1202 113.067 41.6143 112.605 42.1084C112.143 42.6025 111.804 43.16 111.586 43.781L111.591 43.7855Z" fill="#9E6240"/>
<path d="M88.0035 42.8472C88.6328 42.8517 89.2712 42.684 89.9322 42.335C90.5886 41.9905 91.2315 41.5417 91.8608 40.9978C92.4901 40.4538 93.0968 39.8328 93.6853 39.1302C94.2739 38.4321 94.8081 37.7341 95.2971 37.036C95.786 36.3379 96.2207 35.667 96.5964 35.0188C96.9722 34.3752 97.2755 33.8131 97.4974 33.3417C97.6151 33.0787 97.769 32.9156 97.9592 32.8476C98.1493 32.7796 98.3213 32.775 98.4707 32.8385C98.6201 32.902 98.7243 33.0198 98.7877 33.1966C98.851 33.3734 98.8194 33.5864 98.7016 33.8312C97.9048 35.4087 97.0582 36.8819 96.1663 38.2417C95.2744 39.6062 94.3373 40.7847 93.3458 41.782C92.3588 42.7792 91.3221 43.5589 90.2355 44.1209C89.1535 44.683 88.0081 44.955 86.8083 44.9369C86.0387 44.9414 85.3912 44.7692 84.8615 44.411C84.3364 44.0529 83.9108 43.5679 83.5939 42.956C83.277 42.344 83.0551 41.6278 82.9329 40.8028C82.8107 39.9824 82.7744 39.0985 82.8288 38.1602C82.8831 37.0179 83.0551 35.8348 83.3494 34.6063C83.6437 33.3779 84.024 32.1722 84.4948 30.9891C84.9657 29.8105 85.5225 28.7045 86.1654 27.6755C86.8083 26.6465 87.5191 25.7671 88.2933 25.0419C89.0675 24.3166 89.8869 23.7772 90.7607 23.4282C91.6299 23.0791 92.5354 22.9975 93.468 23.1924C94.0521 23.3058 94.4912 23.6231 94.781 24.158C95.0752 24.6883 95.2563 25.341 95.3288 26.1071C95.4012 26.8777 95.3831 27.7254 95.279 28.6546C95.1703 29.5839 95.0073 30.5086 94.79 31.4333C94.5727 32.358 94.3192 33.2374 94.0204 34.0715C93.7261 34.91 93.4273 35.6262 93.124 36.2246C93.0334 36.3832 92.8251 36.4694 92.5037 36.483C92.1823 36.4966 91.8699 36.4422 91.562 36.3243C91.2542 36.2019 91.0142 36.0297 90.8422 35.803C90.6701 35.5764 90.6928 35.3135 90.9146 35.0052C91.0731 34.7741 91.2723 34.3616 91.5213 33.7723C91.7703 33.183 92.0193 32.5076 92.2683 31.7597C92.5173 31.0117 92.7391 30.2275 92.9293 29.4161C93.1194 28.6048 93.2371 27.8614 93.2824 27.1905C93.3277 26.5196 93.2734 25.9711 93.124 25.5541C92.9745 25.1325 92.6893 24.9286 92.2592 24.9376C91.8337 24.9603 91.3673 25.2368 90.8739 25.7581C90.3759 26.2794 89.8824 26.9638 89.3889 27.8024C88.8954 28.641 88.4291 29.5975 87.9854 30.6672C87.5417 31.737 87.1524 32.8294 86.8219 33.9445C86.4914 35.0642 86.2379 36.1566 86.0613 37.2218C85.8847 38.2916 85.8304 39.239 85.8893 40.0685C85.9526 40.898 86.1473 41.5689 86.4823 42.0766C86.8174 42.5888 87.3244 42.8427 88.0081 42.8427L88.0035 42.8472Z" fill="#9E6240"/>
</svg>
